<?xml version="1.0" standalone="no"?>
<!DOCTYPE svg PUBLIC "-//W3C//DTD SVG 20010904//EN"
 "http://www.w3.org/TR/2001/REC-SVG-20010904/DTD/svg10.dtd">
<svg version="1.0" xmlns="http://www.w3.org/2000/svg"
 width="1084.000000pt" height="1084.000000pt" viewBox="0 0 1084.000000 1084.000000"
 preserveAspectRatio="xMidYMid meet">
<metadata>
Created by potrace 1.14, written by Peter Selinger 2001-2017
</metadata>
<g transform="translate(0.000000,1084.000000) scale(0.100000,-0.100000)"
fill="#000000" stroke="none">
<path d="M0 5420 l0 -5420 5418 2 5417 3 0 5415 0 5415 -5417 3 -5418 2 0
-5420z m1610 1416 c331 -93 499 -330 499 -706 0 -246 -66 -421 -210 -555 -79
-73 -137 -105 -254 -141 l-90 -28 -477 -4 -478 -3 0 -505 0 -504 -165 0 -165
0 0 1235 0 1236 638 -3 c579 -4 643 -6 702 -22z m3910 -116 l0 -140 -690 0
-690 0 0 -390 0 -390 640 0 640 0 0 -140 0 -140 -640 0 -640 0 0 -425 0 -425
695 0 695 0 0 -140 0 -140 -860 0 -860 0 0 1235 0 1235 855 0 855 0 0 -140z
m3523 111 c246 -55 400 -134 547 -281 139 -139 219 -296 264 -521 39 -192 40
-502 2 -719 -96 -544 -400 -839 -939 -910 -45 -6 -293 -10 -573 -10 l-494 0 0
1236 0 1235 548 -4 c519 -3 552 -5 645 -26z m-6753 -2251 l0 -190 -195 0 -195
0 0 190 0 190 195 0 195 0 0 -190z m4040 0 l0 -190 -195 0 -195 0 0 190 0 190
195 0 195 0 0 -190z m4360 0 l0 -190 -195 0 -195 0 0 190 0 190 195 0 195 0 0
-190z"/>
<path d="M600 6130 l0 -452 403 5 c430 5 456 7 563 58 155 73 237 259 206 470
-21 145 -81 239 -190 297 -113 60 -147 64 -584 69 l-398 5 0 -452z"/>
<path d="M8180 5625 l0 -957 353 4 c321 5 359 7 432 27 389 105 585 419 585
938 0 541 -179 830 -570 918 -60 14 -145 18 -437 22 l-363 5 0 -957z"/>
</g>
</svg>
