<?xml version="1.0" standalone="no"?>
<!DOCTYPE svg PUBLIC "-//W3C//DTD SVG 20010904//EN"
 "http://www.w3.org/TR/2001/REC-SVG-20010904/DTD/svg10.dtd">
<svg version="1.0" xmlns="http://www.w3.org/2000/svg"
 width="1084.000000pt" height="1084.000000pt" viewBox="0 0 1084.000000 1084.000000"
 preserveAspectRatio="xMidYMid meet">
<metadata>
Created by potrace 1.14, written by Peter Selinger 2001-2017
</metadata>
<g transform="translate(0.000000,1084.000000) scale(0.100000,-0.100000)"
fill="#000000" stroke="none">
<path d="M310 6648 c-1 -4 -1 -2147 -1 -2320 l1 -148 165 0 165 0 0 505 0 505
443 1 c243 0 451 2 462 5 11 2 35 6 54 9 229 32 410 173 494 385 69 175 75
453 13 630 -65 183 -205 322 -391 384 -122 42 -167 44 -797 45 -335 1 -608 0
-608 -1z m1160 -298 c153 -31 243 -92 298 -202 77 -151 65 -378 -27 -505 -46
-64 -126 -119 -200 -139 -107 -29 -154 -32 -518 -33 l-383 -2 0 451 0 451 373
-2 c310 -1 386 -4 457 -19z"/>
<path d="M3859 6648 c0 -4 -1 -2418 0 -2446 l1 -22 858 2 857 3 0 135 0 135
-692 3 -693 2 0 425 0 425 640 0 c505 0 640 3 641 13 0 6 1 68 1 137 l2 125
-642 3 -642 2 0 390 0 390 688 0 687 0 0 140 0 140 -852 0 c-469 0 -853 -1
-854 -2z"/>
<path d="M7889 6633 c0 -24 0 -2413 0 -2436 1 -16 30 -17 504 -16 276 0 529 5
562 10 33 5 80 11 105 14 69 10 270 80 341 121 153 86 277 211 361 364 55 100
119 295 133 405 2 22 7 51 10 65 9 47 19 204 19 315 -1 447 -128 757 -394 958
-105 79 -293 159 -440 186 -30 6 -71 13 -90 17 -19 4 -277 9 -572 11 -515 4
-538 4 -539 -14z m1046 -273 c97 -16 119 -21 179 -41 318 -106 478 -402 478
-884 -1 -218 -28 -381 -87 -509 -14 -30 -25 -58 -25 -61 0 -4 -20 -37 -43 -73
-68 -104 -138 -170 -242 -227 -52 -29 -138 -64 -168 -71 -10 -2 -26 -5 -35 -8
-53 -16 -108 -19 -424 -23 l-348 -5 0 957 0 956 333 -2 c182 0 355 -5 382 -9z"/>
<path d="M1945 4370 l0 -190 193 0 192 0 1 33 c1 37 1 242 0 305 l-1 42 -193
0 -192 0 0 -190z"/>
<path d="M5985 4373 l0 -188 193 -3 192 -2 1 22 c1 35 1 321 0 341 -1 16 -17
17 -194 17 l-192 0 0 -187z"/>
<path d="M10347 4553 c-2 -5 -3 -89 -3 -188 l1 -180 193 -3 c215 -3 194 -11
194 73 0 19 -1 96 -1 170 l-1 135 -189 0 c-105 0 -192 -3 -194 -7z"/>
</g>
</svg>
